<svg xmlns="http://www.w3.org/2000/svg"><symbol id="frappe" viewBox="0 0 59.207 59.207"><path d="M39.491 8.35L38.4 11.197c.519.586.996 1.21 1.425 1.868l1.532-4.001-1.866-.714z" fill="#00d7ec"/><path d="M41.052 17.795a5.06 5.06 0 0 0-.48-3.479c-2.685-5.068-8.013-8.521-14.148-8.521s-11.463 3.453-14.148 8.521a5.06 5.06 0 0 0-.48 3.479h29.256z" fill="#faf5e5"/><path fill="#00d7ec" d="M41.131 6l2 2-1.414 1.413-2-2zM43.131 4l2 2-1.414 1.413-2-2zM45.131 2l2 2-1.414 1.413-2-2zM47.131 0l2 2-1.414 1.413-2-2z"/><path d="M38.202 11.729L35.709 18.3h2.141l1.778-4.703a16.195 16.195 0 0 0-1.426-1.868z" fill="#3dabef"/><path d="M32.259 58.707H20.59a3.784 3.784 0 0 1-3.725-3.116l-6.277-36.884a.775.775 0 0 1 .763-.912h30.146c.483 0 .849.437.763.912l-6.277 36.884a3.783 3.783 0 0 1-3.724 3.116z" fill="#a46f3e"/><path d="M32.259 59.207H20.591a4.282 4.282 0 0 1-4.218-3.527l-6.277-36.889a1.273 1.273 0 0 1 1.256-1.496h30.146a1.274 1.274 0 0 1 1.255 1.501l-6.275 36.879a4.284 4.284 0 0 1-4.219 3.532zM11.351 18.295a.27.27 0 0 0-.211.099.273.273 0 0 0-.06.225l6.277 36.889a3.28 3.28 0 0 0 3.232 2.7h11.668a3.282 3.282 0 0 0 3.233-2.705l6.275-36.879a.268.268 0 0 0-.059-.229.27.27 0 0 0-.211-.099H11.351z" fill="#8e5b32"/><path d="M23.792 39.887L21.6 41.935a2.006 2.006 0 0 1-2.827-.096l-2.048-2.192a2.006 2.006 0 0 1 .096-2.827l2.192-2.048a2.006 2.006 0 0 1 2.827.096l2.048 2.192a2.006 2.006 0 0 1-.096 2.827z" fill="#cc9669"/><path d="M29.792 32.123L27.6 34.171a2.006 2.006 0 0 1-2.827-.096l-2.048-2.192a2.006 2.006 0 0 1 .096-2.827l2.192-2.048a2.006 2.006 0 0 1 2.827.096l2.048 2.192a2.006 2.006 0 0 1-.096 2.827z" fill="#e0ab85"/><path d="M21.792 27.123L19.6 29.171a2.006 2.006 0 0 1-2.827-.096l-2.048-2.192a2.006 2.006 0 0 1 .096-2.827l2.192-2.048a2.006 2.006 0 0 1 2.827.096l2.048 2.192a2.006 2.006 0 0 1-.096 2.827zM32.792 53.123L30.6 55.171a2.006 2.006 0 0 1-2.827-.096l-2.048-2.192a2.006 2.006 0 0 1 .096-2.827l2.192-2.048a2.006 2.006 0 0 1 2.827.096l2.048 2.192a2.006 2.006 0 0 1-.096 2.827z" fill="#dbb59c"/><path fill="#915d33" d="M35.709 18.301L21.491 55.35l1.867.714L37.85 18.301z"/><circle cx="30.425" cy="35.379" r="1" fill="#6a3311"/><circle cx="32.425" cy="40.379" r="1" fill="#6a3311"/><circle cx="35.425" cy="45.379" r="1" fill="#cc9669"/><circle cx="27.425" cy="42.379" r="1" fill="#e0ab85"/><circle cx="34.425" cy="34.379" r="1" fill="#e0ab85"/><circle cx="19.425" cy="48.472" r="1" fill="#6a3311"/><circle cx="21.425" cy="54.472" r="1" fill="#e0ab85"/><g><path d="M16.466 15.015s3.079-5.85 11.185-5.725" fill="#faf5e5"/><path d="M16.466 16.016a1 1 0 0 1-.884-1.466c.136-.258 3.394-6.262 11.811-6.262l.275.002a1 1 0 0 1-.016 2c-.07.005-.168-.001-.253-.002-7.23 0-10.021 5.141-10.048 5.193a.999.999 0 0 1-.885.535z" fill="#fff"/></g></symbol></svg>