<svg xmlns="http://www.w3.org/2000/svg"><symbol id="frappe" viewBox="0 0 512 512"><path fill="#f9ebdb" d="M380.541 212.261l-6.82 80.725L256 348.337l-117.721-55.351-6.82-80.725L256 201.191z"/><path d="M373.721 292.986l-14.768 174.733L256 489.859l-102.954-22.141-14.768-174.733c11.591-4.096 15.033-14.303 32.126-14.303 21.399 0 21.399 15.997 42.798 15.997s21.399-15.997 42.798-15.997 21.399 15.997 42.798 15.997 21.399-15.997 42.798-15.997c17.092.001 20.535 10.208 32.125 14.304z" fill="#c67741"/><path fill="#8e4238" d="M358.954 467.719L355.212 512H156.788l-3.742-44.281z"/><path d="M301.809 63.654h-93.832c-45.521 18.532-77.625 63.211-77.625 115.396l124.541 11.07 124.541-11.07c0-52.185-32.104-96.864-77.625-115.396z" fill="#f9ebdb"/><path d="M321.315 0h-49.816c-13.735 0-24.908 11.173-24.908 24.908v90.485h16.605V24.908c0-4.579 3.724-8.303 8.303-8.303h49.816a8.303 8.303 0 0 0 0-16.605z" fill="#c67741"/><path d="M340.034 179.051l-85.141 11.07-85.141-11.07c0-22.927 18.587-41.514 41.514-41.514.985 0 1.959.044 2.923.111 3.808-19.008 20.58-33.322 40.705-33.322s36.897 14.314 40.705 33.322a42.691 42.691 0 0 1 2.923-.111c22.925 0 41.512 18.587 41.512 41.514z" fill="#fff"/><path fill="#e8d6bd" d="M114.854 179.051h282.292v33.211H114.854z"/></symbol></svg>