<?xml version="1.0" encoding="iso-8859-1"?>
<!-- Generator: Adobe Illustrator 19.0.0, SVG Export Plug-In . SVG Version: 6.00 Build 0)  -->
<svg version="1.1" id="Layer_1" xmlns="http://www.w3.org/2000/svg" xmlns:xlink="http://www.w3.org/1999/xlink" x="0px" y="0px"
	 viewBox="0 0 512 512" style="enable-background:new 0 0 512 512;" xml:space="preserve">
<polygon style="fill:#F9EBDB;" points="380.541,212.261 373.721,292.986 256,348.337 138.279,292.986 131.459,212.261 256,201.191 
	"/>
<path style="fill:#C67741;" d="M373.721,292.986l-14.768,174.733L256,489.859l-102.954-22.141l-14.768-174.733
	c11.591-4.096,15.033-14.303,32.126-14.303c21.399,0,21.399,15.997,42.798,15.997s21.399-15.997,42.798-15.997
	s21.399,15.997,42.798,15.997c21.399,0,21.399-15.997,42.798-15.997C358.688,278.683,362.131,288.89,373.721,292.986z"/>
<polygon style="fill:#8E4238;" points="358.954,467.719 355.212,512 156.788,512 153.046,467.719 "/>
<path style="fill:#F9EBDB;" d="M301.809,63.654h-93.832c-45.521,18.532-77.625,63.211-77.625,115.396l124.541,11.07l124.541-11.07
	C379.434,126.865,347.33,82.186,301.809,63.654z"/>
<path style="fill:#C67741;" d="M321.315,0h-49.816c-13.735,0-24.908,11.173-24.908,24.908v90.485h16.605V24.908
	c0-4.579,3.724-8.303,8.303-8.303h49.816c4.585,0,8.303-3.717,8.303-8.303S325.9,0,321.315,0z"/>
<path style="fill:#FFFFFF;" d="M340.034,179.051l-85.141,11.07l-85.141-11.07c0-22.927,18.587-41.514,41.514-41.514
	c0.985,0,1.959,0.044,2.923,0.111c3.808-19.008,20.58-33.322,40.705-33.322s36.897,14.314,40.705,33.322
	c0.963-0.066,1.937-0.111,2.923-0.111C321.447,137.537,340.034,156.124,340.034,179.051z"/>
<rect x="114.854" y="179.051" style="fill:#E8D6BD;" width="282.292" height="33.211"/>
<g>
</g>
<g>
</g>
<g>
</g>
<g>
</g>
<g>
</g>
<g>
</g>
<g>
</g>
<g>
</g>
<g>
</g>
<g>
</g>
<g>
</g>
<g>
</g>
<g>
</g>
<g>
</g>
<g>
</g>
</svg>
